<svg width="30" height="30" viewBox="0 0 30 30" fill="none" xmlns="http://www.w3.org/2000/svg">
<path d="M23.75 26.25L27.5 22.5M27.5 22.5L23.75 18.75M27.5 22.5H20M15 19.375H9.37501C7.63055 19.375 6.75832 19.375 6.04857 19.5903C4.45057 20.075 3.20005 21.3256 2.7153 22.9236C2.5 23.6333 2.5 24.5055 2.5 26.25M18.125 9.375C18.125 12.4816 15.6066 15 12.5 15C9.3934 15 6.875 12.4816 6.875 9.375C6.875 6.2684 9.3934 3.75 12.5 3.75C15.6066 3.75 18.125 6.2684 18.125 9.375Z" stroke="#F5F6F8" stroke-width="2" stroke-linecap="round" stroke-linejoin="round"/>
</svg>
