<svg width="39" height="36" viewBox="0 0 39 36" fill="none" xmlns="http://www.w3.org/2000/svg">
<g clip-path="url(#clip0_1349_17)">
<path d="M19.1171 25.6781L17.6652 24.3483C15.7042 22.4842 14.0216 20.351 12.6572 18.004C11.2928 15.657 10.2785 13.1359 9.6381 10.5159L9.18066 8.6478L11.0303 8.09371C16.2968 6.51851 21.8856 6.49477 27.1919 8.03039L29.0694 8.5726L28.604 10.4605C27.2874 15.8035 24.4751 20.6082 20.4615 24.3642L19.1171 25.6742V25.6781Z" fill="#202023"/>
<path d="M3.767 2.27577C13.7591 -0.716314 24.3638 -0.759849 34.4314 2.15704L37.6295 3.08316L29.7138 7.52775L27.5301 6.8945C22.001 5.29556 16.1776 5.31535 10.6923 6.96179L8.5403 7.6069L0.620605 3.21772L3.767 2.27577Z" fill="#202023"/>
<path d="M6.51555 21.657C3.93001 17.2005 2.00081 12.4234 0.787594 7.45247L0 4.23083L7.94754 8.63585L8.47658 10.8008C9.14484 13.5316 10.2029 16.1556 11.623 18.6015C13.043 21.0475 14.7972 23.2717 16.8497 25.219L18.5363 26.7585V36L16.0184 33.6965C12.2992 30.1622 9.10108 26.1134 6.51952 21.657H6.51555Z" fill="#202023"/>
<path d="M22.0008 33.7282L19.7295 35.9406V26.7467L21.2888 25.2269C25.4614 21.3206 28.393 16.314 29.7653 10.7493L30.3063 8.55674L38.2499 4.09631L37.4464 7.35357C34.9483 17.4895 29.6102 26.6042 22.0008 33.7282Z" fill="#202023"/>
</g>
<defs>
<clipPath id="clip0_1349_17">
<rect width="38.25" height="36" fill="white"/>
</clipPath>
</defs>
</svg>
