<svg width="1025" height="1024" viewBox="0 0 1025 1024" fill="none" xmlns="http://www.w3.org/2000/svg">
<g clip-path="url(#clip0_1389_16284)">
<path d="M512.317 675.799L481.343 647.43C439.508 607.662 403.613 562.153 374.506 512.084C345.4 462.016 323.761 408.232 310.099 352.338L300.34 312.485L339.799 300.665C452.152 267.061 571.378 266.554 684.579 299.314L724.633 310.881L714.704 351.156C686.616 465.14 626.621 567.641 540.999 647.768L512.317 675.715V675.799Z" fill="white"/>
<path d="M184.848 176.549C398.012 112.718 624.245 111.789 839.022 174.016L907.249 193.773L738.38 288.591L691.793 275.082C573.839 240.971 449.606 241.393 332.587 276.517L286.678 290.28L117.725 196.644L184.848 176.549Z" fill="white"/>
<path d="M243.485 590.016C188.327 494.945 147.17 393.034 121.288 286.987L104.486 218.259L274.034 312.232L285.32 358.417C299.576 416.675 322.149 472.654 352.443 524.834C382.738 577.013 420.16 624.464 463.947 666.005L499.927 698.85V896L446.212 846.86C366.869 771.462 298.643 685.087 243.57 590.016H243.485Z" fill="white"/>
<path d="M573.839 847.536L525.385 894.733V698.596L558.649 666.174C647.666 582.839 710.207 476.032 739.483 357.319L751.024 310.543L920.486 215.388L903.345 284.876C850.054 501.108 736.173 695.557 573.839 847.536Z" fill="white"/>
</g>
<defs>
<clipPath id="clip0_1389_16284">
<rect width="816" height="768" fill="white" transform="translate(104.486 128)"/>
</clipPath>
</defs>
</svg>
