<svg width="1025" height="1025" viewBox="0 0 1025 1025" fill="none" xmlns="http://www.w3.org/2000/svg">
<g clip-path="url(#clip0_1389_16270)">
<path d="M512.812 675.833L481.838 647.464C440.003 607.696 404.108 562.187 375.001 512.118C345.895 462.05 324.256 408.266 310.594 352.371L300.835 312.519L340.294 300.699C452.647 267.094 571.873 266.588 685.075 299.348L725.128 310.915L715.199 351.189C687.111 465.174 627.116 567.675 541.494 647.801L512.812 675.749V675.833Z" fill="#202023"/>
<path d="M185.343 176.583C398.508 112.751 624.741 111.823 839.518 174.05L907.744 193.807L738.875 288.625L692.288 275.116C574.335 241.005 450.102 241.427 333.082 276.551L287.173 290.313L118.22 196.678L185.343 176.583Z" fill="#202023"/>
<path d="M243.98 590.05C188.822 494.978 147.665 393.068 121.783 287.021L104.981 218.292L274.529 312.266L285.815 358.451C300.071 416.709 322.644 472.688 352.938 524.868C383.233 577.047 420.655 624.498 464.442 666.039L500.422 698.883V896.034L446.707 846.894C367.364 771.495 299.138 685.121 244.065 590.05H243.98Z" fill="#202023"/>
<path d="M574.335 847.569L525.881 894.767V698.63L559.145 666.208C648.162 582.873 710.703 476.065 739.979 357.353L751.52 310.577L920.982 215.422L903.841 284.91C850.55 501.142 736.67 695.591 574.335 847.569Z" fill="#202023"/>
</g>
<defs>
<clipPath id="clip0_1389_16270">
<rect width="816" height="768" fill="white" transform="translate(104.981 128.034)"/>
</clipPath>
</defs>
</svg>
